<svg xmlns="http://www.w3.org/2000/svg" version="1.1" xmlns:xlink="http://www.w3.org/1999/xlink" xmlns:svgjs="http://svgjs.dev/svgjs" width="2000" height="1247" viewBox="0 0 2000 1247"><g transform="matrix(1,0,0,1,-1.2121212121212466,0.504858299595071)"><svg viewBox="0 0 396 247" data-background-color="#ffffff" preserveAspectRatio="xMidYMid meet" height="1247" width="2000" xmlns="http://www.w3.org/2000/svg" xmlns:xlink="http://www.w3.org/1999/xlink"><g id="tight-bounds" transform="matrix(1,0,0,1,0.2400000000000091,-0.09999999999999432)"><svg viewBox="0 0 395.52 247.2" height="247.2" width="395.52"><g><svg></svg></g><g><svg viewBox="0 0 395.52 247.2" height="247.2" width="395.52"><g transform="matrix(1,0,0,1,148.59634146341463,47.215199999999996)"><svg viewBox="0 0 98.32731707317073 152.7696" height="152.7696" width="98.32731707317073"><g><svg viewBox="0 0 98.32731707317073 152.7696" height="152.7696" width="98.32731707317073"><g><svg viewBox="0 0 98.32731707317073 152.7696" height="152.7696" width="98.32731707317073"><g><svg viewBox="0 0 98.32731707317073 152.7696" height="152.7696" width="98.32731707317073"><g id="textblocktransform"><svg viewBox="0 0 98.32731707317073 152.7696" height="152.7696" width="98.32731707317073" id="textblock"><g><svg viewBox="0 0 98.32731707317073 152.7696" height="152.7696" width="98.32731707317073"><g transform="matrix(1,0,0,1,0,0)"><svg width="98.32731707317073" viewBox="3.450000047683716 -36.900001525878906 23.75 36.900001525878906" height="152.7696" data-palette-color="#ff0033"><path d="M9.6 0L3.45 0 3.45-28.85Q3.45-31.2 4.15-32.77 4.85-34.35 6.03-35.25 7.2-36.15 8.63-36.52 10.05-36.9 11.45-36.9L11.45-36.9Q13.4-36.9 16.05-36.88 18.7-36.85 21.6-36.73 24.5-36.6 27.2-36.35L27.2-36.35 27.2-31.2 13.1-31.2Q11.45-31.2 10.53-30.28 9.6-29.35 9.6-27.75L9.6-27.75 9.6-20.3 24.95-19.95 24.95-15.1 9.6-14.75 9.6 0Z" opacity="1" transform="matrix(1,0,0,1,0,0)" fill="#ff0033" class="wordmark-text-0" data-fill-palette-color="primary" id="text-0"></path></svg></g></svg></g></svg></g></svg></g></svg></g></svg></g></svg></g><path d="M330.898 41.215L330.898 0 83.698 0 83.698 247.2 330.898 247.2 330.898 205.985 317.121 205.985 317.121 233.423 97.475 233.423 97.475 13.777 317.121 13.777 317.121 41.215Z" fill="#ff0033" stroke="transparent" data-fill-palette-color="primary"></path></svg></g><defs></defs></svg><rect width="395.52" height="247.2" fill="none" stroke="none" visibility="hidden"></rect></g></svg></g></svg>